<svg width="30" height="101" viewBox="0 0 30 101" fill="none" xmlns="http://www.w3.org/2000/svg">
<path d="M15.072 49.504L15.072 51.312L22.864 51.312L23.808 51.456L23.04 50.912L21.952 49.568L22.672 48.96L25.392 51.872L25.392 52.464L15.072 52.464L15.072 54.208L14 54.208L14 49.504L15.072 49.504ZM16.592 56.1311C17.3067 56.1311 17.9147 56.2751 18.416 56.5631C18.9173 56.8618 19.3707 57.2991 19.776 57.8751C19.936 57.6618 20.1013 57.4591 20.272 57.2671C20.4533 57.0858 20.656 56.9258 20.88 56.7871C21.104 56.6485 21.3547 56.5365 21.632 56.4511C21.9093 56.3765 22.2293 56.3391 22.592 56.3391C23.456 56.3391 24.1387 56.5631 24.64 57.0111C25.1413 57.4698 25.392 58.0938 25.392 58.8831C25.392 59.6191 25.1627 60.2005 24.704 60.6271C24.256 61.0645 23.6373 61.2831 22.848 61.2831C22.24 61.2831 21.7013 61.1658 21.232 60.9311C20.7627 60.6965 20.304 60.3285 19.856 59.8271C19.696 60.0511 19.52 60.2645 19.328 60.4671C19.136 60.6698 18.9173 60.8458 18.672 60.9951C18.4373 61.1551 18.1653 61.2778 17.856 61.3631C17.5573 61.4485 17.2107 61.4911 16.816 61.4911C15.9093 61.4911 15.1787 61.2458 14.624 60.7551C14.08 60.2751 13.808 59.6031 13.808 58.7391C13.808 58.3231 13.8773 57.9551 14.016 57.6351C14.1547 57.3151 14.3467 57.0431 14.592 56.8191C14.8373 56.5951 15.1307 56.4245 15.472 56.3071C15.8133 56.1898 16.1867 56.1311 16.592 56.1311ZM19.328 58.6271C18.9653 58.1365 18.56 57.7791 18.112 57.5551C17.664 57.3418 17.216 57.2351 16.768 57.2351C16.224 57.2351 15.7653 57.3685 15.392 57.6351C15.0293 57.9018 14.848 58.2911 14.848 58.8031C14.848 59.2191 14.9973 59.5765 15.296 59.8751C15.6053 60.1845 16.0907 60.3391 16.752 60.3391C17.0827 60.3391 17.376 60.2911 17.632 60.1951C17.888 60.0991 18.112 59.9711 18.304 59.8111C18.5067 59.6511 18.688 59.4698 18.848 59.2671C19.0187 59.0645 19.1787 58.8511 19.328 58.6271ZM20.272 59.0591C20.6347 59.4218 20.9973 59.6991 21.36 59.8911C21.7333 60.0831 22.144 60.1791 22.592 60.1791C23.1787 60.1791 23.616 60.0458 23.904 59.7791C24.2027 59.5231 24.352 59.2191 24.352 58.8671C24.352 58.6431 24.304 58.4405 24.208 58.2591C24.1227 58.0885 24 57.9445 23.84 57.8271C23.68 57.7098 23.4933 57.6191 23.28 57.5551C23.0773 57.4911 22.8587 57.4591 22.624 57.4591C22.336 57.4591 22.0747 57.5018 21.84 57.5871C21.616 57.6725 21.408 57.7898 21.216 57.9391C21.0347 58.0885 20.864 58.2591 20.704 58.4511C20.5547 58.6431 20.4107 58.8458 20.272 59.0591ZM17.44 69.3022L17.44 67.8142L14 67.8142L14 66.6622L17.44 66.6622L17.44 62.7262L17.984 62.7262L25.376 66.9663L25.376 67.8143L18.48 67.8142L18.48 69.3022L17.44 69.3022ZM22.064 66.6622L23.44 66.8543L23.44 66.8062L22.208 66.3262L19.152 64.5662L18.368 63.9582L18.48 64.8382L18.48 66.6622L22.064 66.6622ZM17.376 76.0894C16.8427 76.0787 16.352 76.0094 15.904 75.8814C15.4667 75.764 15.0933 75.5827 14.784 75.3374C14.4747 75.1027 14.2347 74.8094 14.064 74.4574C13.8933 74.116 13.808 73.7267 13.808 73.2894C13.808 72.3934 14.1333 71.6894 14.784 71.1774C15.4347 70.676 16.4267 70.4254 17.76 70.4254C18.8907 70.4254 19.8987 70.5374 20.784 70.7614C21.6693 70.996 22.432 71.3107 23.072 71.7054C23.712 72.1 24.224 72.564 24.608 73.0974C25.0027 73.6307 25.264 74.2014 25.392 74.8094L24.464 75.1294C24.336 74.6494 24.1227 74.212 23.824 73.8174C23.5253 73.4227 23.1627 73.076 22.736 72.7774C22.3093 72.4787 21.8293 72.228 21.296 72.0254C20.7627 71.8334 20.192 71.7 19.584 71.6254C19.872 71.764 20.1227 71.9934 20.336 72.3134C20.5493 72.644 20.656 73.0494 20.656 73.5294C20.656 74.2974 20.384 74.9107 19.84 75.3694C19.296 75.8387 18.4747 76.0787 17.376 76.0894ZM17.264 74.9214C18.832 74.9214 19.616 74.356 19.616 73.2254C19.616 72.82 19.488 72.4734 19.232 72.1854C18.976 71.8974 18.688 71.6947 18.368 71.5774C18.2293 71.556 18.0907 71.5454 17.952 71.5454C17.824 71.5454 17.7013 71.5507 17.584 71.5614C17.232 71.5507 16.8907 71.5774 16.56 71.6414C16.24 71.716 15.952 71.8227 15.696 71.9614C15.44 72.1107 15.232 72.292 15.072 72.5054C14.9227 72.7294 14.848 72.9907 14.848 73.2894C14.848 73.7694 15.0613 74.1587 15.488 74.4574C15.9147 74.7667 16.5067 74.9214 17.264 74.9214ZM24.096 82.7325L24.096 79.0365L14 79.0365L14 77.8365L25.2 77.8365L25.2 82.7325L24.096 82.7325Z" fill="#E5E5E5"/>
<line x1="9.5" y1="2.18557e-08" x2="9.5" y2="100" stroke="white"/>
<line x1="18.3536" y1="91.3536" x2="9.35355" y2="100.354" stroke="white"/>
<line x1="0.353553" y1="91.6464" x2="9.35355" y2="100.646" stroke="white"/>
</svg>
