<svg width="22" height="22" viewBox="0 0 22 22" fill="none" xmlns="http://www.w3.org/2000/svg">
<path d="M17.0622 15.2044C18.26 13.6156 18.9933 11.6356 18.9933 9.48444C18.9933 4.25333 14.7156 0 9.48444 0C4.25333 0 0 4.25333 0 9.48444C0 14.7156 4.25333 18.9689 9.48444 18.9689C11.44 18.9689 13.2733 18.3578 14.7889 17.3311C14.8133 17.3556 14.8133 17.3556 14.8378 17.38L18.9933 21.5356C19.2867 21.8289 19.7022 22 20.0933 22C20.4844 22 20.9 21.8533 21.1933 21.5356C21.8044 20.9244 21.8044 19.9467 21.1933 19.3356L17.0622 15.2044ZM9.48444 15.8644C5.96444 15.8644 3.10444 13.0044 3.10444 9.48444C3.10444 5.96444 5.96444 3.10444 9.48444 3.10444C13.0044 3.10444 15.8644 5.96444 15.8644 9.48444C15.8644 13.0044 13.0044 15.8644 9.48444 15.8644Z" fill="white"/>
</svg>
